<svg xmlns="http://www.w3.org/2000/svg" width="50" height="50" viewBox="0 0 50 50">
  <g id="Group_143" data-name="Group 143" transform="translate(-282.75 -1854.75)">
    <circle id="Ellipse_227" data-name="Ellipse 227" cx="25" cy="25" r="25" transform="translate(282.75 1854.75)" fill="#ff3381"/>
    <path id="Path_310" data-name="Path 310" d="M-5955.8,11.072a.618.618,0,0,1,0-.876l4.009-4.009h-12.589a.618.618,0,0,1-.619-.619.618.618,0,0,1,.619-.619h12.473l-3.893-3.894a.617.617,0,0,1,0-.874.617.617,0,0,1,.875,0l5.008,5.007a.618.618,0,0,1,0,.876l-5.008,5.008a.619.619,0,0,1-.437.18A.621.621,0,0,1-5955.8,11.072Z" transform="translate(6265.325 1873.975)" fill="#fff"/>
  </g>
</svg>
