<svg xmlns="http://www.w3.org/2000/svg" width="36" height="37" viewBox="0 0 36 37">
  <g id="Group_88" data-name="Group 88" transform="translate(-0.161)">
    <g id="Group_82" data-name="Group 82" transform="translate(8.44 8.44)">
      <path id="Path_60" data-name="Path 60" d="M391.471,726.438a1.127,1.127,0,1,0,1.128,1.127A1.127,1.127,0,0,0,391.471,726.438Zm-5.011,1.445a4.735,4.735,0,1,0,4.735,4.735A4.741,4.741,0,0,0,386.46,727.883Zm0,7.768a3.033,3.033,0,1,1,3.033-3.033A3.037,3.037,0,0,1,386.46,735.651Zm9.555-6.969a5.775,5.775,0,0,0-5.776-5.776h-7.623a5.776,5.776,0,0,0-5.776,5.776v7.624a5.775,5.775,0,0,0,5.776,5.775h7.623a5.775,5.775,0,0,0,5.776-5.775Zm-1.809,7.624a3.966,3.966,0,0,1-3.967,3.966h-7.623a3.967,3.967,0,0,1-3.967-3.966v-7.624a3.967,3.967,0,0,1,3.967-3.967h7.623a3.967,3.967,0,0,1,3.967,3.967Z" transform="translate(-376.84 -722.907)" fill="#fff"/>
    </g>
    <path id="Ellipse_11" data-name="Ellipse 11" d="M18,1A16.649,16.649,0,0,0,5.989,6.116a17.865,17.865,0,0,0,0,24.768,16.658,16.658,0,0,0,24.022,0,17.865,17.865,0,0,0,0-24.768A16.649,16.649,0,0,0,18,1m0-1A18.255,18.255,0,0,1,36,18.5,18.255,18.255,0,0,1,18,37,18.255,18.255,0,0,1,0,18.5,18.255,18.255,0,0,1,18,0Z" transform="translate(0.161)" fill="#fff"/>
  </g>
</svg>
