<svg xmlns="http://www.w3.org/2000/svg" width="37" height="37" viewBox="0 0 37 37">
  <g id="Group_89" data-name="Group 89" transform="translate(0.259)">
    <g id="Group_87" data-name="Group 87" transform="translate(9.847 9.847)">
      <g id="Group_85" data-name="Group 85" transform="translate(0.226 4.787)">
        <g id="Group_84" data-name="Group 84">
          <g id="Group_83" data-name="Group 83">
            <path id="Path_61" data-name="Path 61" d="M514.411,738.571v5.716a.256.256,0,0,1-.256.256h-2.951a.256.256,0,0,1-.256-.256v-5.316c0-1.4-.5-2.354-1.753-2.354a1.894,1.894,0,0,0-1.776,1.266,2.372,2.372,0,0,0-.115.844v5.56a.256.256,0,0,1-.256.256H504.1a.255.255,0,0,1-.256-.256c.006-1.416.036-8.283.006-9.9a.255.255,0,0,1,.256-.258h2.944a.255.255,0,0,1,.256.255v1.22c-.007.011-.017.023-.023.034h.023v-.034a3.437,3.437,0,0,1,3.12-1.72c2.278,0,3.985,1.488,3.985,4.686Zm-15.688,5.972h2.95a.256.256,0,0,0,.256-.256v-9.9a.255.255,0,0,0-.256-.255h-2.95a.255.255,0,0,0-.255.255v9.9A.256.256,0,0,0,498.723,744.544Z" transform="translate(-498.468 -733.886)" fill="#fff"/>
          </g>
        </g>
      </g>
      <g id="Group_86" data-name="Group 86" transform="translate(0 0)">
        <path id="Path_62" data-name="Path 62" d="M501.751,726.8a1.853,1.853,0,1,1-1.853-1.853A1.853,1.853,0,0,1,501.751,726.8Z" transform="translate(-498.045 -724.942)" fill="#fff"/>
      </g>
    </g>
    <path id="Ellipse_12" data-name="Ellipse 12" d="M18.5,1A17.5,17.5,0,0,0,6.126,30.874,17.5,17.5,0,0,0,30.874,6.126,17.385,17.385,0,0,0,18.5,1m0-1A18.5,18.5,0,1,1,0,18.5,18.5,18.5,0,0,1,18.5,0Z" transform="translate(-0.259)" fill="#fff"/>
  </g>
</svg>
