<svg xmlns="http://www.w3.org/2000/svg" width="275.277" height="65.594" viewBox="0 0 275.277 65.594">
  <g id="Group_91" data-name="Group 91" transform="translate(-5188 241)">
    <g id="Group_90" data-name="Group 90" transform="translate(5282.813 -220.105)">
      <path id="Path_208" data-name="Path 208" d="M559.633,371.818v3.231a6.736,6.736,0,0,1-2.441-.38,3.355,3.355,0,0,1-1.55-1.2,8.181,8.181,0,0,1-3.332.634,7.344,7.344,0,0,1-4.766-1.473,4.744,4.744,0,0,1-1.821-3.88v-12.1a4.744,4.744,0,0,1,1.821-3.88,8.45,8.45,0,0,1,9.533,0,4.745,4.745,0,0,1,1.821,3.88v12.1a4.975,4.975,0,0,1-.775,2.755,2.877,2.877,0,0,0,1.511.317m-4.844-15.17a2.02,2.02,0,0,0-.659-1.615,3.194,3.194,0,0,0-3.642,0,2.019,2.019,0,0,0-.659,1.615v12.1a2.018,2.018,0,0,0,.659,1.615,3.194,3.194,0,0,0,3.642,0,2.019,2.019,0,0,0,.659-1.615Z" transform="translate(-545.721 -351.296)"/>
      <path id="Path_209" data-name="Path 209" d="M593.607,365.041l-1.55,2.438v6.683h-4.108V351.993h4.108v8.994l5.425-8.994H601.9l-5.774,9.406,6.2,12.763h-4.417Z" transform="translate(-568.768 -351.676)"/>
      <path id="Path_210" data-name="Path 210" d="M646.122,372.641a4.675,4.675,0,0,1-1.782-3.8V356.553a4.676,4.676,0,0,1,1.782-3.8,8.151,8.151,0,0,1,9.3,0,4.678,4.678,0,0,1,1.782,3.8v2.6h-4.03v-2.6a1.909,1.909,0,0,0-.659-1.52,2.835,2.835,0,0,0-3.41,0,1.909,1.909,0,0,0-.659,1.52v12.288a1.908,1.908,0,0,0,.659,1.519,2.835,2.835,0,0,0,3.41,0,1.908,1.908,0,0,0,.659-1.519v-3.167h4.03v3.167a4.676,4.676,0,0,1-1.782,3.8,8.151,8.151,0,0,1-9.3,0" transform="translate(-599.544 -351.296)"/>
      <path id="Path_211" data-name="Path 211" d="M693.573,374.162l-2.984-9.152h-2.131v9.152H684.35V351.993h6.433a7.136,7.136,0,0,1,4.689,1.441,4.74,4.74,0,0,1,1.744,3.848v2.439a4.849,4.849,0,0,1-2.829,4.528l3.449,9.913Zm-5.115-12.32h2.131a2.865,2.865,0,0,0,1.86-.538,1.853,1.853,0,0,0,.659-1.52v-2.565a1.854,1.854,0,0,0-.659-1.52,2.868,2.868,0,0,0-1.86-.539h-2.131Z" transform="translate(-621.38 -351.676)"/>
      <path id="Path_212" data-name="Path 212" d="M724.872,351.993h11.664v3.167H728.98v6.175h6.006V364.5H728.98V371h7.556v3.167H724.872Z" transform="translate(-643.495 -351.676)"/>
      <path id="Path_213" data-name="Path 213" d="M768.925,369.253h-4.417l-.891,4.909h-4.108l4.5-22.169h5.5L774,374.162h-4.185Zm-.542-3.23-1.667-9.279-1.666,9.279Z" transform="translate(-662.398 -351.676)"/>
      <path id="Path_214" data-name="Path 214" d="M795.339,351.993h13.1v3.167h-4.5v19h-4.108v-19h-4.5Z" transform="translate(-681.953 -351.676)"/>
      <path id="Path_215" data-name="Path 215" d="M835.635,372.626a4.743,4.743,0,0,1-1.822-3.88v-12.1a4.742,4.742,0,0,1,1.822-3.879,8.447,8.447,0,0,1,9.532,0,4.744,4.744,0,0,1,1.822,3.879v12.1a4.746,4.746,0,0,1-1.822,3.88,8.447,8.447,0,0,1-9.532,0m6.587-2.265a2.021,2.021,0,0,0,.659-1.615v-12.1a2.021,2.021,0,0,0-.659-1.615,3.2,3.2,0,0,0-3.643,0,2.019,2.019,0,0,0-.659,1.615v12.1a2.019,2.019,0,0,0,.659,1.615,3.2,3.2,0,0,0,3.643,0" transform="translate(-702.951 -351.296)"/>
      <path id="Path_216" data-name="Path 216" d="M884.581,374.162,881.6,365.01h-2.131v9.152h-4.108V351.993h6.433a7.136,7.136,0,0,1,4.689,1.441,4.74,4.74,0,0,1,1.744,3.848v2.439a4.849,4.849,0,0,1-2.829,4.528l3.449,9.913Zm-5.115-12.32H881.6a2.866,2.866,0,0,0,1.86-.538,1.853,1.853,0,0,0,.659-1.52v-2.565a1.854,1.854,0,0,0-.659-1.52,2.868,2.868,0,0,0-1.86-.539h-2.131Z" transform="translate(-725.625 -351.676)"/>
      <path id="Path_217" data-name="Path 217" d="M917.011,373.4a5.543,5.543,0,0,1-2.345-1.932,4.916,4.916,0,0,1-.833-2.819v-.792l3.952-.348v.824a2.564,2.564,0,0,0,.7,1.9,2.618,2.618,0,0,0,1.937.7,3,3,0,0,0,1.918-.57,1.877,1.877,0,0,0,.717-1.552,3.332,3.332,0,0,0-.756-2.059,18.083,18.083,0,0,0-3-2.724,21.19,21.19,0,0,1-4.127-3.9,5.719,5.719,0,0,1-1.1-3.389,5.034,5.034,0,0,1,1.666-3.975,7.8,7.8,0,0,1,9.145.015,5.087,5.087,0,0,1,1.667,3.99v.57l-3.953.348v-.633a2.853,2.853,0,0,0-.581-1.932,2.094,2.094,0,0,0-1.666-.665,2.365,2.365,0,0,0-1.667.538,2.054,2.054,0,0,0-.581,1.584,3.172,3.172,0,0,0,.775,2.01,22.05,22.05,0,0,0,2.983,2.772,25.086,25.086,0,0,1,4.127,3.974,5.469,5.469,0,0,1,1.105,3.31,4.924,4.924,0,0,1-.833,2.819,5.545,5.545,0,0,1-2.344,1.932,8.884,8.884,0,0,1-6.9,0" transform="translate(-746.624 -351.296)"/>
    </g>
    <g id="Group_89" data-name="Group 89" transform="translate(5188 -241)">
      <path id="Path_219" data-name="Path 219" d="M461.73,371.362l-50.372,6.612,3.008-4.858,12.6-20.34,14.075,9.286,5.855-45.236.788-1v0l-.209-3.376Z" transform="translate(-377.577 -312.38)"/>
      <path id="Path_220" data-name="Path 220" d="M454.8,368.62l-36.816,4.5,12.6-20.34,14.075,9.286,5.855-45.236.565-4.379.223,3.376v0Z" transform="translate(-381.191 -312.38)" fill="#ff3381"/>
      <path id="Path_221" data-name="Path 221" d="M415.908,312.388l-62.365,14.753L356.1,342.88Z" transform="translate(-346.024 -312.347)"/>
      <path id="Path_222" data-name="Path 222" d="M406.871,312.339l-42.293,25.967,14.63,9.655-11.386,17.574-5.792,8.935-1.394.169-4.926.606-18.722-33.818,9.227-3.846,60.427-25.188.228-.1Z" transform="translate(-336.989 -312.298)" fill="#ff3381"/>
    </g>
  </g>
</svg>
