<svg xmlns="http://www.w3.org/2000/svg" width="101.38" height="100.507" viewBox="0 0 101.38 100.507">
  <g id="Group_142" data-name="Group 142" transform="translate(-283 -1373.295)">
    <path id="Path_238" data-name="Path 238" d="M517.919,228.308H463.477v-74.16h54.617C517.919,161.651,517.919,219.932,517.919,228.308Z" transform="translate(-156.398 1220.368)" fill="none"/>
    <path id="Path_239" data-name="Path 239" d="M496.266,205.941A4.362,4.362,0,1,1,491.9,210.3,4.321,4.321,0,0,1,496.266,205.941Z" transform="translate(-135.792 1257.914)" fill="#221d42"/>
    <path id="Path_308" data-name="Path 308" d="M496.789,205.941a4.885,4.885,0,1,1-4.887,4.885A4.839,4.839,0,0,1,496.789,205.941Z" transform="translate(-202.797 1168.927)" fill="#221d42"/>
    <path id="Path_309" data-name="Path 309" d="M498.535,205.941a6.631,6.631,0,1,1-6.633,6.631A6.567,6.567,0,0,1,498.535,205.941Z" transform="translate(-164.234 1185.501)" fill="#ff3381"/>
    <path id="Path_240" data-name="Path 240" d="M458.165,154.148a5.409,5.409,0,1,1-5.411,5.409A5.436,5.436,0,0,1,458.165,154.148Z" transform="translate(-164.172 1220.368)" fill="none"/>
    <path id="Path_245" data-name="Path 245" d="M508.04,173.773a1.571,1.571,0,1,1-1.57,1.57A1.571,1.571,0,0,1,508.04,173.773Z" transform="translate(-125.231 1234.595)" fill="#ff3381"/>
    <path id="Path_246" data-name="Path 246" d="M505.513,153.541a1.571,1.571,0,1,1-1.573,1.571A1.572,1.572,0,0,1,505.513,153.541Z" transform="translate(-127.065 1219.928)" fill="#ff3381"/>
    <path id="Path_247" data-name="Path 247" d="M505.513,204.728a1.57,1.57,0,1,1-1.573,1.57A1.571,1.571,0,0,1,505.513,204.728Z" transform="translate(-127.065 1257.035)" fill="#ff3381"/>
    <path id="Path_248" data-name="Path 248" d="M499.846,157.284a1.571,1.571,0,1,1-1.571,1.57A1.57,1.57,0,0,1,499.846,157.284Z" transform="translate(-131.172 1222.641)" fill="#ff3381"/>
    <path id="Path_249" data-name="Path 249" d="M482.143,206.042a1.571,1.571,0,1,1-1.57,1.571A1.572,1.572,0,0,1,482.143,206.042Z" transform="translate(-144.005 1257.988)" fill="#ff3381"/>
    <path id="Path_250" data-name="Path 250" d="M457.461,206.042a1.571,1.571,0,1,1-1.57,1.571A1.57,1.57,0,0,1,457.461,206.042Z" transform="translate(-161.898 1257.988)" fill="#ff3381"/>
    <path id="Path_251" data-name="Path 251" d="M451.8,163.05a1.571,1.571,0,1,1-1.57,1.57A1.57,1.57,0,0,1,451.8,163.05Z" transform="translate(-166.005 1226.821)" fill="#ff3381"/>
    <g id="Group_125" data-name="Group 125" transform="translate(316.328 1380.1)">
      <path id="Path_252" data-name="Path 252" d="M489.428,193.157h-5.059a1.007,1.007,0,0,1-1.049-1.047l-.348-4.188a10.781,10.781,0,0,1-2.094-.873l-3.315,2.618a1.062,1.062,0,0,1-1.4,0L472.5,186a1.062,1.062,0,0,1,0-1.4l2.617-3.315a10.682,10.682,0,0,1-.871-2.094l-4.364-.174a1.126,1.126,0,0,1-1.045-1.047v-5.061a1.006,1.006,0,0,1,1.045-1.047l4.188-.523a10.759,10.759,0,0,1,.873-2.094l-2.618-3.315a1.062,1.062,0,0,1,0-1.4l3.666-3.665a1.062,1.062,0,0,1,1.4,0l3.317,2.618a10.508,10.508,0,0,1,2.094-.873l.348-4.188a1.124,1.124,0,0,1,1.045-1.047h5.061a1.006,1.006,0,0,1,1.047,1.047l.348,4.188a10.546,10.546,0,0,1,2.094.873l3.315-2.618a1.064,1.064,0,0,1,1.4,0l3.664,3.665a1.062,1.062,0,0,1,0,1.4l-2.618,3.315a10.544,10.544,0,0,1,.873,2.094l4.188.523a1.127,1.127,0,0,1,1.047,1.047v5.061a1,1,0,0,1-1.047,1.047l-4.188.523a10.546,10.546,0,0,1-.873,2.094l2.618,3.315a1.062,1.062,0,0,1,0,1.4l-3.491,3.491a1.06,1.06,0,0,1-1.394,0l-3.315-2.618a10.631,10.631,0,0,1-2.094.873l-.35,4.188A.978.978,0,0,1,489.428,193.157Zm-4.186-2.094h3.139l.35-3.84a.825.825,0,0,1,.873-.873,8.007,8.007,0,0,0,2.791-1.221,1.076,1.076,0,0,1,1.221.174l3.141,2.444,2.268-2.268-2.443-3.141a1.08,1.08,0,0,1-.176-1.221,19.234,19.234,0,0,0,1.221-2.793,1.438,1.438,0,0,1,.873-.871l4.014-.35v-3.315l-4.014-.348a.826.826,0,0,1-.873-.873,7.969,7.969,0,0,0-1.221-2.793,1.08,1.08,0,0,1,.176-1.221l2.443-3.139-2.268-2.27-3.141,2.444a1.076,1.076,0,0,1-1.221.174,19.3,19.3,0,0,0-2.791-1.221,1.432,1.432,0,0,1-.873-.873l-.35-3.84h-3.139l-.35,3.84a.824.824,0,0,1-.871.873,8,8,0,0,0-2.794,1.221,1.076,1.076,0,0,1-1.221-.174l-3.139-2.444-2.268,2.27,2.442,3.139a1.076,1.076,0,0,1,.174,1.221,19.419,19.419,0,0,0-1.221,2.793,1.437,1.437,0,0,1-.873.873l-4.014.348v3.141l3.84.348a.825.825,0,0,1,.873.873,8.034,8.034,0,0,0,1.221,2.793,1.076,1.076,0,0,1-.174,1.221l-2.443,3.139,2.268,2.27,3.141-2.444a1.076,1.076,0,0,1,1.221-.174,19.221,19.221,0,0,0,2.791,1.221,1.432,1.432,0,0,1,.873.873Z" transform="translate(-468.839 -157.385)" fill="#221d42"/>
    </g>
    <g id="Group_126" data-name="Group 126" transform="translate(326.099 1389.871)">
      <path id="Path_253" data-name="Path 253" d="M482.7,179.452a8.2,8.2,0,1,1,8.2-8.2A8.191,8.191,0,0,1,482.7,179.452Zm0-14.308a5.933,5.933,0,1,0,5.932,5.932A5.884,5.884,0,0,0,482.7,165.144Z" transform="translate(-474.504 -163.05)" fill="#221d42"/>
    </g>
    <g id="Group_127" data-name="Group 127" transform="translate(306.031 1373.469)">
      <path id="Path_254" data-name="Path 254" d="M518.359,229.8a1.126,1.126,0,0,1-1.047-1.047V155.635H464.964v73.113a1.047,1.047,0,0,1-2.094,0v-74.16a1.127,1.127,0,0,1,1.047-1.047h54.617a1.127,1.127,0,0,1,1.047,1.047v74.16A1.168,1.168,0,0,1,518.359,229.8Z" transform="translate(-462.87 -153.541)" fill="#ff3381"/>
    </g>
    <g id="Group_128" data-name="Group 128" transform="translate(283 1447.455)">
      <path id="Path_255" data-name="Path 255" d="M540.079,208.473H460.511a11.059,11.059,0,0,1-10.993-10.993,1.123,1.123,0,0,1,1.045-1.047h6.631a1.046,1.046,0,1,1,0,2.092h-5.409a8.709,8.709,0,0,0,8.726,7.678h79.568a8.75,8.75,0,0,0,8.551-7.678H543.22a1.046,1.046,0,1,1,0-2.092h6.631a1.126,1.126,0,0,1,1.047,1.047,11.286,11.286,0,0,1-3.141,7.676A9.8,9.8,0,0,1,540.079,208.473Z" transform="translate(-449.518 -196.433)" fill="#ff3381"/>
    </g>
    <g id="Group_129" data-name="Group 129" transform="translate(355.064 1462.984)">
      <path id="Path_256" data-name="Path 256" d="M496.705,216.253a5.409,5.409,0,1,1,5.408-5.409A5.553,5.553,0,0,1,496.705,216.253Zm0-8.725a3.316,3.316,0,1,0,3.314,3.315A3.313,3.313,0,0,0,496.705,207.528Z" transform="translate(-491.296 -205.436)" fill="#ff3381"/>
    </g>
    <g id="Group_130" data-name="Group 130" transform="translate(289.629 1389.697)">
      <path id="Path_257" data-name="Path 257" d="M540.606,222.975h-86.2a1.127,1.127,0,0,1-1.047-1.047V173.243a10.313,10.313,0,0,1,10.3-10.294h7.153a1.047,1.047,0,1,1,0,2.094h-7.153a8,8,0,0,0-8.028,8.026v47.637h83.932V173.243a8.005,8.005,0,0,0-8.026-8.026h-6.108a1.047,1.047,0,1,1,0-2.094h6.108a10.312,10.312,0,0,1,10.293,10.3V222.1A1.628,1.628,0,0,1,540.606,222.975Z" transform="translate(-453.361 -162.949)" fill="#ff3381"/>
    </g>
    <g id="Group_131" data-name="Group 131" transform="translate(287.36 1373.295)">
      <path id="Path_258" data-name="Path 258" d="M458.678,166.7a6.631,6.631,0,1,1,6.629-6.631A6.629,6.629,0,0,1,458.678,166.7Zm0-10.993a4.362,4.362,0,1,0,4.361,4.362A4.321,4.321,0,0,0,458.678,155.708Z" transform="translate(-452.046 -153.44)" fill="#ff3381"/>
    </g>
    <g id="Group_132" data-name="Group 132" transform="translate(313.709 1428.086)">
      <path id="Path_259" data-name="Path 259" d="M507.627,187.3H468.368a1.046,1.046,0,1,1,0-2.092h39.259a1.046,1.046,0,1,1,0,2.092Z" transform="translate(-467.321 -185.204)" fill="#221d42"/>
    </g>
    <g id="Group_133" data-name="Group 133" transform="translate(313.709 1422.502)">
      <path id="Path_260" data-name="Path 260" d="M507.627,184.061H468.368a1.047,1.047,0,0,1,0-2.094h39.259a1.047,1.047,0,1,1,0,2.094Z" transform="translate(-467.321 -181.967)" fill="#221d42"/>
    </g>
    <g id="Group_134" data-name="Group 134" transform="translate(313.709 1433.495)">
      <path id="Path_261" data-name="Path 261" d="M507.627,190.434H468.368a1.047,1.047,0,0,1,0-2.094h39.259a1.047,1.047,0,1,1,0,2.094Z" transform="translate(-467.321 -188.34)" fill="#221d42"/>
    </g>
    <g id="Group_135" data-name="Group 135" transform="translate(313.709 1438.904)">
      <path id="Path_262" data-name="Path 262" d="M507.627,193.568H468.368a1.046,1.046,0,1,1,0-2.092h39.259a1.046,1.046,0,1,1,0,2.092Z" transform="translate(-467.321 -191.476)" fill="#221d42"/>
    </g>
  </g>
</svg>
