<svg xmlns="http://www.w3.org/2000/svg" width="101.741" height="100.865" viewBox="0 0 101.741 100.865">
  <g id="Group_141" data-name="Group 141" transform="translate(-772 -1372.936)">
    <path id="Path_270" data-name="Path 270" d="M127.4,686.284v2.1l-3.327.7a6.906,6.906,0,0,1-1.051,2.626l1.752,2.8-1.577,1.575-2.8-1.752a8.251,8.251,0,0,1-2.626,1.052l-.7,3.327h-2.1l-.7-3.327a6.906,6.906,0,0,1-2.626-1.052l-2.8,1.752-1.752-1.4,1.752-2.8a8.208,8.208,0,0,1-1.051-2.626l-3.327-.7v-2.1l3.327-.7a6.881,6.881,0,0,1,1.051-2.624l-1.752-2.8,1.577-1.577,2.8,1.752a8.239,8.239,0,0,1,2.628-1.051l.7-3.327h2.1l.7,3.327a6.882,6.882,0,0,1,2.626,1.051l2.8-1.752,1.575,1.577-1.75,2.8a8.272,8.272,0,0,1,1.051,2.624Zm-8.231,1.052a3.327,3.327,0,1,0-3.325,3.325A3.324,3.324,0,0,0,119.173,687.337Z" transform="translate(732.153 719.047)" fill="#fff"/>
    <path id="Path_271" data-name="Path 271" d="M124.45,686.75a1.575,1.575,0,1,1-1.575,1.575A1.576,1.576,0,0,1,124.45,686.75Z" transform="translate(745.612 726.813)" fill="#ff3381"/>
    <path id="Path_272" data-name="Path 272" d="M123.135,714.568a1.577,1.577,0,1,1-1.575,1.575A1.578,1.578,0,0,1,123.135,714.568Z" transform="translate(744.651 747.149)" fill="#ff3381"/>
    <path id="Path_273" data-name="Path 273" d="M99.769,715.884a1.575,1.575,0,1,1-1.577,1.575A1.575,1.575,0,0,1,99.769,715.884Z" transform="translate(727.568 748.111)" fill="#ff3381"/>
    <path id="Path_274" data-name="Path 274" d="M97.24,664.292a1.576,1.576,0,1,1-1.577,1.577A1.576,1.576,0,0,1,97.24,664.292Z" transform="translate(725.719 710.394)" fill="#ff3381"/>
    <path id="Path_275" data-name="Path 275" d="M86.517,668.44a1.576,1.576,0,1,1-1.577,1.577A1.577,1.577,0,0,1,86.517,668.44Z" transform="translate(717.88 713.427)" fill="#ff3381"/>
    <path id="Path_276" data-name="Path 276" d="M75.086,715.884a1.575,1.575,0,1,1-1.577,1.575A1.574,1.574,0,0,1,75.086,715.884Z" transform="translate(709.523 748.111)" fill="#ff3381"/>
    <path id="Path_277" data-name="Path 277" d="M69.42,675.42A1.576,1.576,0,1,1,67.845,677,1.574,1.574,0,0,1,69.42,675.42Z" transform="translate(705.382 718.53)" fill="#ff3381"/>
    <path id="Path_278" data-name="Path 278" d="M117.517,700.359h-2.1a1.108,1.108,0,0,1-1.051-.876l-.7-2.451a7.289,7.289,0,0,1-1.752-.7l-2.276,1.4a1.086,1.086,0,0,1-1.4-.177l-1.575-1.575a1.318,1.318,0,0,1-.175-1.4l1.4-2.276a5.211,5.211,0,0,1-.7-1.75l-2.451-.526a1.11,1.11,0,0,1-.876-1.051v-2.1a1.107,1.107,0,0,1,.876-1.049l2.626-.526a7.338,7.338,0,0,1,.7-1.752l-1.4-2.276a1.083,1.083,0,0,1,.175-1.4l1.575-1.575a1.316,1.316,0,0,1,1.4-.175l2.278,1.4a5.212,5.212,0,0,1,1.75-.7l.526-2.628a1.11,1.11,0,0,1,1.051-.876h2.1a1.11,1.11,0,0,1,1.049.876l.526,2.628a7.257,7.257,0,0,1,1.75.7l2.276-1.4a1.083,1.083,0,0,1,1.4.175l1.575,1.575a1.32,1.32,0,0,1,.177,1.4l-1.4,2.276a5.237,5.237,0,0,1,.7,1.752l2.626.526a1.105,1.105,0,0,1,.876,1.049v2.1a1.108,1.108,0,0,1-.876,1.051l-2.8.7a7.325,7.325,0,0,1-.7,1.75l1.4,2.278a1.079,1.079,0,0,1-.175,1.4l-1.575,1.579a1.322,1.322,0,0,1-1.4.173l-2.276-1.4a5.245,5.245,0,0,1-1.75.7l-.526,2.626C118.391,700.01,118.041,700.359,117.517,700.359Zm-1.226-2.1h.35l.525-2.451a1.446,1.446,0,0,1,.876-.876,8.748,8.748,0,0,0,2.276-.874,1.5,1.5,0,0,1,1.226,0l2.1,1.4.35-.35-1.4-2.1a1.5,1.5,0,0,1,0-1.226,5.168,5.168,0,0,0,.876-2.276,1.437,1.437,0,0,1,.876-.876l2.451-.526v-.35l-2.451-.526a1.429,1.429,0,0,1-.876-.876,8.794,8.794,0,0,0-.876-2.275,1.5,1.5,0,0,1,0-1.226l1.4-2.1-.35-.351-2.1,1.4a1.484,1.484,0,0,1-1.226,0,5.167,5.167,0,0,0-2.276-.874,1.441,1.441,0,0,1-.876-.876l-.525-2.451h-.35l-.526,2.451a1.437,1.437,0,0,1-.876.876,8.809,8.809,0,0,0-2.276.874,1.484,1.484,0,0,1-1.226,0l-2.1-1.4-.35.351,1.4,2.1a1.5,1.5,0,0,1,0,1.226,5.139,5.139,0,0,0-.876,2.275,1.425,1.425,0,0,1-.876.876l-2.451.526v.35l2.451.526a1.433,1.433,0,0,1,.876.876,8.747,8.747,0,0,0,.876,2.276,1.5,1.5,0,0,1,0,1.226l-1.4,2.1.35.35,2.1-1.4a1.5,1.5,0,0,1,1.226,0,5.146,5.146,0,0,0,2.276.874,1.442,1.442,0,0,1,.876.876Z" transform="translate(731.709 718.455)" fill="#221d42"/>
    <path id="Path_279" data-name="Path 279" d="M112.99,688.829a4.378,4.378,0,1,1,4.376-4.376A4.333,4.333,0,0,1,112.99,688.829Zm0-6.478a2.317,2.317,0,0,0-2.276,2.275,2.172,2.172,0,0,0,2.276,2.1,2.127,2.127,0,0,0,2.1-2.1A2.071,2.071,0,0,0,112.99,682.351Z" transform="translate(735.186 721.931)" fill="#221d42"/>
    <path id="Path_280" data-name="Path 280" d="M129.871,722.379h-23.29a5.269,5.269,0,0,1-5.254-5.254V671.772a5.268,5.268,0,0,1,5.254-5.254h23.29a5.269,5.269,0,0,1,5.254,5.254V712.4a1.051,1.051,0,1,1-2.1,0V671.772a3.14,3.14,0,0,0-3.152-3.154h-23.29a3.141,3.141,0,0,0-3.152,3.154v45.177a3.141,3.141,0,0,0,3.152,3.154h23.29a3.14,3.14,0,0,0,3.152-3.154,1.051,1.051,0,0,1,2.1,0A5.2,5.2,0,0,1,129.871,722.379Z" transform="translate(729.86 712.022)" fill="#ff3381"/>
    <path id="Path_281" data-name="Path 281" d="M73.346,732.512a1.132,1.132,0,0,1-1.051-1.052V683.3A9.791,9.791,0,0,1,82.1,673.5h41.677a1.13,1.13,0,0,1,1.051,1.049A1.171,1.171,0,0,1,123.6,675.6H82.1a7.774,7.774,0,0,0-7.7,7.7v48.155A1.13,1.13,0,0,1,73.346,732.512Z" transform="translate(708.636 717.125)" fill="#ff3381"/>
    <path id="Path_282" data-name="Path 282" d="M120.689,718.682a1.13,1.13,0,0,1-1.051-1.052V693.464a1.051,1.051,0,0,1,2.1,0V717.63C121.914,718.156,121.388,718.682,120.689,718.682Z" transform="translate(743.246 730.954)" fill="#ff3381"/>
    <path id="Path_283" data-name="Path 283" d="M155.3,704.734H73.346a1.051,1.051,0,1,1,0-2.1h82.128a1.131,1.131,0,0,1,1.051,1.049A1.172,1.172,0,0,1,155.3,704.734Z" transform="translate(708.636 738.423)" fill="#ff3381"/>
    <path id="Path_284" data-name="Path 284" d="M134.074,695.224h-31.7a1.051,1.051,0,1,1,0-2.1h31.7a1.13,1.13,0,0,1,1.051,1.049A1.011,1.011,0,0,1,134.074,695.224Z" transform="translate(729.86 731.471)" fill="#ff3381"/>
    <path id="Path_285" data-name="Path 285" d="M134.074,673.07h-31.7a1.051,1.051,0,1,1,0-2.1h31.7a1.13,1.13,0,0,1,1.051,1.051A1.01,1.01,0,0,1,134.074,673.07Z" transform="translate(729.86 715.276)" fill="#ff3381"/>
    <path id="Path_286" data-name="Path 286" d="M158.02,718.358H78.168a11.1,11.1,0,0,1-11.032-11.032,1.132,1.132,0,0,1,1.051-1.052h99.64a1.132,1.132,0,0,1,1.051,1.052,11.315,11.315,0,0,1-3.152,7.7A9.841,9.841,0,0,1,158.02,718.358Zm-88.606-9.806a8.737,8.737,0,0,0,8.754,7.7H158.02a8.781,8.781,0,0,0,8.581-7.7Z" transform="translate(704.864 741.085)" fill="#ff3381"/>
    <path id="Path_287" data-name="Path 287" d="M95.155,690.394h0a1.048,1.048,0,0,1-1.051-1.225l.7-5.6-5.6.7a1.142,1.142,0,0,1-.175-2.278l7-.7c.351,0,.7,0,.876.35s.35.526.35.876l-.7,7.006A1.791,1.791,0,0,1,95.155,690.394Z" transform="translate(720.099 722.819)" fill="#221d42"/>
    <path id="Path_288" data-name="Path 288" d="M87.674,692.706a.9.9,0,0,1-.7-.35,1.307,1.307,0,0,1,0-1.575l9.282-9.28a1.114,1.114,0,0,1,1.575,1.575l-9.28,9.28A1.135,1.135,0,0,1,87.674,692.706Z" transform="translate(719.174 722.782)" fill="#221d42"/>
    <path id="Path_289" data-name="Path 289" d="M79.618,699.874a.915.915,0,0,1-.7-.35,1.344,1.344,0,0,1-.35-.876l.7-7a1.142,1.142,0,0,1,2.276.175l-.7,5.78,5.605-.7a1.142,1.142,0,0,1,.175,2.278l-7.006.7Z" transform="translate(713.221 729.623)" fill="#221d42"/>
    <path id="Path_290" data-name="Path 290" d="M79.581,700.8a.915.915,0,0,1-.7-.35,1.307,1.307,0,0,1,0-1.575l9.282-9.282a1.115,1.115,0,0,1,1.575,1.577l-9.28,9.28C80.107,700.624,79.931,700.8,79.581,700.8Z" transform="translate(713.258 728.698)" fill="#221d42"/>
    <g id="Group_140" data-name="Group 140">
      <circle id="Ellipse_228" data-name="Ellipse 228" cx="5" cy="5" r="5" transform="translate(786 1375)" fill="#221d42"/>
      <path id="Path_291" data-name="Path 291" d="M80.77,676.589a6.654,6.654,0,1,1,6.656-6.654A6.768,6.768,0,0,1,80.77,676.589Zm0-11.032a4.378,4.378,0,1,0,4.378,4.378A4.448,4.448,0,0,0,80.77,665.557Z" transform="translate(709.967 709.655)" fill="#ff3381"/>
    </g>
    <g id="Group_139" data-name="Group 139">
      <circle id="Ellipse_229" data-name="Ellipse 229" cx="4" cy="4" r="4" transform="translate(846 1465)" fill="#221d42"/>
      <path id="Path_292" data-name="Path 292" d="M114.344,726.135a5.429,5.429,0,1,1,5.429-5.43A5.574,5.574,0,0,1,114.344,726.135Zm0-8.757a3.328,3.328,0,1,0,3.327,3.327A3.326,3.326,0,0,0,114.344,717.378Z" transform="translate(735.407 747.667)" fill="#ff3381"/>
    </g>
  </g>
</svg>
