<svg xmlns="http://www.w3.org/2000/svg" width="109.128" height="100.865" viewBox="0 0 109.128 100.865">
  <g id="Group_138" data-name="Group 138" transform="translate(-983.063 -1378.087)">
    <path id="Path_294" data-name="Path 294" d="M240.175,166.186a5.115,5.115,0,1,1-5.115,5.115A5.066,5.066,0,0,1,240.175,166.186Z" transform="translate(824.931 1229.292)" fill="#221d42"/>
    <path id="Path_295" data-name="Path 295" d="M205.3,194.713a7.569,7.569,0,1,1-7.572,7.57A7.57,7.57,0,0,1,205.3,194.713Z" transform="translate(786.763 1258.461)" fill="#221d42"/>
    <path id="Path_296" data-name="Path 296" d="M256.046,188.5l-12.48,9,4.706,14.73-12.48-9-12.481,9,4.707-14.73-12.481-9h15.549l4.706-14.73L240.5,188.5Z" transform="translate(804.968 1237.05)" fill="#221d42"/>
    <path id="Path_297" data-name="Path 297" d="M249.547,185.1a1.84,1.84,0,1,1-1.842,1.84A1.832,1.832,0,0,1,249.547,185.1Z" transform="translate(837.86 1248.635)" fill="#ff3381"/>
    <path id="Path_298" data-name="Path 298" d="M248.333,164.972a1.841,1.841,0,1,1-1.842,1.84A1.841,1.841,0,0,1,248.333,164.972Z" transform="translate(836.619 1228.051)" fill="#ff3381"/>
    <path id="Path_299" data-name="Path 299" d="M247.623,201.895a1.841,1.841,0,1,1-1.84,1.842A1.835,1.835,0,0,1,247.623,201.895Z" transform="translate(835.895 1265.804)" fill="#ff3381"/>
    <path id="Path_300" data-name="Path 300" d="M226.786,205.638a1.841,1.841,0,1,1-1.842,1.84A1.979,1.979,0,0,1,226.786,205.638Z" transform="translate(814.587 1269.631)" fill="#ff3381"/>
    <path id="Path_301" data-name="Path 301" d="M215.455,158.6a1.841,1.841,0,1,1-1.84,1.84A1.841,1.841,0,0,1,215.455,158.6Z" transform="translate(803.004 1221.535)" fill="#ff3381"/>
    <path id="Path_302" data-name="Path 302" d="M205.961,187.025a1.841,1.841,0,1,1-1.842,1.84C203.914,187.842,204.937,187.025,205.961,187.025Z" transform="translate(793.267 1250.6)" fill="#ff3381"/>
    <path id="Path_303" data-name="Path 303" d="M201.5,168.108a1.841,1.841,0,1,1-1.84,1.842A1.843,1.843,0,0,1,201.5,168.108Z" transform="translate(788.73 1231.257)" fill="#ff3381"/>
    <path id="Path_304" data-name="Path 304" d="M282.447,255.586a1.228,1.228,0,0,1-.817-.2l-30.076-22.1-30.279,21.891a.99.99,0,0,1-1.432,0,1.263,1.263,0,0,1-.411-1.432l11.457-35.6-30.279-21.889a1.267,1.267,0,0,1-.411-1.434,1.125,1.125,0,0,1,1.23-.817h37.438l11.457-35.6a1.122,1.122,0,0,1,1.228-.819,1.382,1.382,0,0,1,1.228.819l11.457,35.6h37.44a1.38,1.38,0,0,1,1.228.817,1.269,1.269,0,0,1-.409,1.434L272.219,218.35l11.455,35.6a1.265,1.265,0,0,1-.409,1.432C283.061,255.382,282.857,255.586,282.447,255.586Zm-30.893-25.164a1.234,1.234,0,0,1,.819.2L280.2,250.882l-10.638-32.736a1.265,1.265,0,0,1,.411-1.432l27.823-20.253H263.419a1.387,1.387,0,0,1-1.228-.819l-10.638-32.736-10.638,32.736a1.121,1.121,0,0,1-1.228.819H205.315l27.825,20.253a1.267,1.267,0,0,1,.409,1.432l-10.638,32.736,27.823-20.255A1.236,1.236,0,0,1,251.553,230.423Z" transform="translate(789.206 1220.5)" fill="#ff3381"/>
    <path id="Path_305" data-name="Path 305" d="M223.867,214.187a1.228,1.228,0,0,1-.817-.2,1.262,1.262,0,0,1-.409-1.432l4.5-13.913-11.662-8.591a1.266,1.266,0,0,1-.409-1.432,1.121,1.121,0,0,1,1.228-.819h14.525l4.5-13.913a1.124,1.124,0,0,1,1.228-.819,1.382,1.382,0,0,1,1.228.819l4.5,13.913h14.525a1.378,1.378,0,0,1,1.228.819,1.357,1.357,0,0,1-.409,1.432l-11.662,8.591,4.5,13.913a1.265,1.265,0,0,1-.409,1.432.986.986,0,0,1-1.432,0l-12.276-8.591-11.662,8.591A1.546,1.546,0,0,1,223.867,214.187Zm12.481-11.662a1.224,1.224,0,0,1,.819.206l9.411,6.751L243.1,198.434A1.267,1.267,0,0,1,243.51,197l9.411-6.751H241.463a1.383,1.383,0,0,1-1.228-.819l-3.887-10.842-3.477,11.049a1.124,1.124,0,0,1-1.228.817H219.98l9.413,6.751a1.267,1.267,0,0,1,.409,1.432l-3.477,11.049,9.411-6.751C235.735,202.732,236.144,202.525,236.348,202.525Z" transform="translate(804.411 1236.325)" fill="#ff3381"/>
    <path id="Path_306" data-name="Path 306" d="M240.8,178.264a6.342,6.342,0,1,1,6.342-6.343A6.375,6.375,0,0,1,240.8,178.264Zm0-10.23a3.887,3.887,0,0,0,0,7.774,3.761,3.761,0,0,0,3.887-3.887A3.884,3.884,0,0,0,240.8,168.034Z" transform="translate(824.31 1228.672)" fill="#ff3381"/>
    <path id="Path_307" data-name="Path 307" d="M206.028,211.909a9,9,0,1,1,9-9A8.826,8.826,0,0,1,206.028,211.909Zm0-15.347a6.342,6.342,0,1,0,6.34,6.342A6.124,6.124,0,0,0,206.028,196.563Z" transform="translate(786.04 1257.632)" fill="#ff3381"/>
  </g>
</svg>
