<svg id="Group_91" data-name="Group 91" xmlns="http://www.w3.org/2000/svg" width="37" height="37" viewBox="0 0 37 37">
  <g id="Group_79" data-name="Group 79" transform="translate(9.847 11.253)">
    <g id="Group_78" data-name="Group 78" transform="translate(0)">
      <g id="Group_73" data-name="Group 73">
        <path id="Path_54" data-name="Path 54" d="M289.839,728.533a7.355,7.355,0,0,1-1.806.516c.291-.049.72-.575.891-.788a3.322,3.322,0,0,0,.6-1.095c.016-.031.027-.07,0-.094a.1.1,0,0,0-.1.008,9.231,9.231,0,0,1-2.144.821.142.142,0,0,1-.148-.04,1.823,1.823,0,0,0-.188-.192,3.777,3.777,0,0,0-1.039-.636,3.621,3.621,0,0,0-1.593-.257,3.813,3.813,0,0,0-1.511.427,3.9,3.9,0,0,0-1.22,1,3.748,3.748,0,0,0-.728,1.459,3.955,3.955,0,0,0-.039,1.54c.012.086,0,.1-.074.086a11.454,11.454,0,0,1-7.369-3.751c-.086-.1-.133-.1-.2.007a3.737,3.737,0,0,0,.637,4.415c.144.137.293.273.453.4a3.762,3.762,0,0,1-1.422-.4c-.086-.054-.13-.023-.137.074a2.245,2.245,0,0,0,.024.422,3.778,3.778,0,0,0,2.329,3.012,2.157,2.157,0,0,0,.473.145,4.21,4.21,0,0,1-1.395.043c-.1-.019-.14.031-.1.129a3.924,3.924,0,0,0,2.93,2.454c.133.023.266.023.4.054-.008.012-.016.012-.024.024a4.641,4.641,0,0,1-2,1.061,7.164,7.164,0,0,1-3.039.389c-.164-.024-.2-.022-.242,0s-.005.067.047.109c.207.137.418.258.633.375a10.047,10.047,0,0,0,2.032.813A10.821,10.821,0,0,0,285.27,738.6a11.024,11.024,0,0,0,2.907-8.042c0-.116.136-.179.218-.24a7.077,7.077,0,0,0,1.423-1.487.432.432,0,0,0,.088-.285v-.015C289.906,728.485,289.912,728.5,289.839,728.533Z" transform="translate(-272.033 -726.768)" fill="#fff"/>
      </g>
      <g id="Group_74" data-name="Group 74" transform="translate(5.307 14.658)">
        <path id="Path_55" data-name="Path 55" d="M281.951,754.157Z" transform="translate(-281.951 -754.157)" fill="#fff" fill-rule="evenodd"/>
      </g>
      <g id="Group_75" data-name="Group 75" transform="translate(5.171 14.658)">
        <path id="Path_56" data-name="Path 56" d="M281.833,754.157c-.023,0-.295,0,0,0Z" transform="translate(-281.696 -754.157)" fill="#fff" fill-rule="evenodd"/>
      </g>
      <g id="Group_76" data-name="Group 76" transform="translate(5.91 14.66)">
        <path id="Path_57" data-name="Path 57" d="M283.076,754.174c0-.03.316,0,0,0C283.076,754.159,283.114,754.174,283.076,754.174Z" transform="translate(-283.076 -754.161)" fill="#fff" fill-rule="evenodd"/>
      </g>
      <g id="Group_77" data-name="Group 77" transform="translate(12.157 0.022)">
        <path id="Path_58" data-name="Path 58" d="M294.823,726.809a.065.065,0,0,1-.074,0Z" transform="translate(-294.749 -726.809)" fill="#fff" fill-rule="evenodd"/>
      </g>
    </g>
  </g>
  <path id="Ellipse_9" data-name="Ellipse 9" d="M18.5,1A17.5,17.5,0,0,0,6.126,30.874,17.5,17.5,0,0,0,30.874,6.126,17.385,17.385,0,0,0,18.5,1m0-1A18.5,18.5,0,1,1,0,18.5,18.5,18.5,0,0,1,18.5,0Z" fill="#fff"/>
</svg>
